<svg width="273" height="88" viewBox="0 0 273 88" fill="none" xmlns="http://www.w3.org/2000/svg">
<path d="M0.5 44C0.5 19.6995 20.1995 0 44.5 0H229C253.301 0 273 19.6995 273 44V44C273 68.3005 253.301 88 229 88H141.5H44.5C20.1995 88 0.5 68.3005 0.5 44V44Z" fill="white"/>
<path d="M121.999 56.415V29.815H127.129V56.415H121.999ZM105.241 56.415V29.815H110.371V56.415H105.241ZM109.649 44.901V40.759H122.873V44.901H109.649ZM130.706 56.415V37.567H135.836V56.415H130.706ZM133.29 35.135C132.353 35.135 131.593 34.8564 131.01 34.299C130.427 33.7417 130.136 33.0577 130.136 32.247C130.136 31.411 130.427 30.7144 131.01 30.157C131.593 29.5997 132.353 29.321 133.29 29.321C134.227 29.321 134.987 29.5997 135.57 30.157C136.178 30.7144 136.482 31.411 136.482 32.247C136.482 33.0577 136.178 33.7417 135.57 34.299C134.987 34.8564 134.227 35.135 133.29 35.135ZM149.022 56.871C147.021 56.871 145.273 56.453 143.778 55.617C142.309 54.7557 141.156 53.5904 140.32 52.121C139.509 50.6264 139.104 48.9164 139.104 46.991C139.104 45.0657 139.522 43.3684 140.358 41.899C141.219 40.4044 142.385 39.239 143.854 38.403C145.349 37.5417 147.071 37.111 149.022 37.111C151.454 37.111 153.506 37.7444 155.178 39.011C156.85 40.2777 157.901 42.0257 158.332 44.255H152.898C152.695 43.343 152.227 42.6464 151.492 42.165C150.783 41.6584 149.947 41.405 148.984 41.405C148.097 41.405 147.299 41.633 146.59 42.089C145.906 42.5197 145.361 43.153 144.956 43.989C144.551 44.825 144.348 45.8257 144.348 46.991C144.348 47.8524 144.462 48.625 144.69 49.309C144.918 49.9677 145.235 50.5504 145.64 51.057C146.071 51.5384 146.565 51.9057 147.122 52.159C147.679 52.387 148.3 52.501 148.984 52.501C149.643 52.501 150.238 52.3997 150.77 52.197C151.302 51.969 151.758 51.6524 152.138 51.247C152.518 50.8164 152.771 50.3097 152.898 49.727H158.332C157.901 51.9057 156.85 53.641 155.178 54.933C153.506 56.225 151.454 56.871 149.022 56.871ZM170.132 56.871C168.308 56.871 166.661 56.453 165.192 55.617C163.723 54.781 162.557 53.6157 161.696 52.121C160.86 50.6264 160.442 48.9164 160.442 46.991C160.442 45.0404 160.873 43.3304 161.734 41.861C162.595 40.3664 163.761 39.201 165.23 38.365C166.699 37.529 168.333 37.111 170.132 37.111C171.956 37.111 173.603 37.529 175.072 38.365C176.541 39.201 177.694 40.3664 178.53 41.861C179.391 43.3304 179.822 45.0404 179.822 46.991C179.822 48.9417 179.391 50.6644 178.53 52.159C177.669 53.6284 176.503 54.781 175.034 55.617C173.59 56.453 171.956 56.871 170.132 56.871ZM170.094 52.539C170.93 52.539 171.677 52.3364 172.336 51.931C173.02 51.5257 173.565 50.9177 173.97 50.107C174.401 49.271 174.616 48.2324 174.616 46.991C174.616 45.7497 174.401 44.7237 173.97 43.913C173.565 43.077 173.02 42.4564 172.336 42.051C171.677 41.6457 170.955 41.443 170.17 41.443C169.359 41.443 168.612 41.6457 167.928 42.051C167.244 42.4564 166.699 43.077 166.294 43.913C165.889 44.7237 165.686 45.7497 165.686 46.991C165.686 48.2324 165.889 49.271 166.294 50.107C166.699 50.9177 167.231 51.5257 167.89 51.931C168.574 52.3364 169.309 52.539 170.094 52.539ZM182.535 56.415V37.567H186.943L187.361 40.645H187.475C188.109 39.5304 188.945 38.669 189.983 38.061C191.022 37.4277 192.327 37.111 193.897 37.111C195.468 37.111 196.798 37.453 197.887 38.137C198.977 38.7957 199.8 39.771 200.357 41.063C200.94 42.355 201.231 43.951 201.231 45.851V56.415H196.139V46.307C196.139 44.7364 195.81 43.533 195.151 42.697C194.518 41.861 193.517 41.443 192.149 41.443C191.288 41.443 190.515 41.6584 189.831 42.089C189.147 42.4944 188.615 43.0897 188.235 43.875C187.855 44.635 187.665 45.5724 187.665 46.687V56.415H182.535ZM213.591 56.871C211.665 56.871 209.955 56.4657 208.461 55.655C206.991 54.8444 205.839 53.7044 205.003 52.235C204.167 50.7657 203.749 49.081 203.749 47.181C203.749 45.205 204.154 43.4697 204.965 41.975C205.801 40.455 206.953 39.2644 208.423 38.403C209.917 37.5417 211.653 37.111 213.629 37.111C215.503 37.111 217.15 37.5164 218.569 38.327C219.987 39.1377 221.102 40.2524 221.913 41.671C222.723 43.0644 223.129 44.6477 223.129 46.421C223.129 46.6744 223.129 46.9657 223.129 47.295C223.129 47.599 223.103 47.9157 223.053 48.245H207.397V45.091H217.923C217.847 43.9004 217.403 42.9504 216.593 42.241C215.807 41.5317 214.819 41.177 213.629 41.177C212.742 41.177 211.931 41.3797 211.197 41.785C210.462 42.165 209.879 42.7604 209.449 43.571C209.018 44.3564 208.803 45.357 208.803 46.573V47.675C208.803 48.7137 209.005 49.613 209.411 50.373C209.816 51.1077 210.373 51.6777 211.083 52.083C211.817 52.4884 212.641 52.691 213.553 52.691C214.49 52.691 215.275 52.4884 215.909 52.083C216.542 51.6524 217.023 51.1077 217.353 50.449H222.597C222.217 51.6397 221.609 52.729 220.773 53.717C219.937 54.6797 218.911 55.4524 217.695 56.035C216.479 56.5924 215.111 56.871 213.591 56.871ZM233.523 56.871C231.851 56.871 230.369 56.5924 229.077 56.035C227.811 55.4777 226.785 54.7177 225.999 53.755C225.239 52.767 224.796 51.6524 224.669 50.411H229.799C229.901 50.867 230.103 51.2977 230.407 51.703C230.711 52.1084 231.117 52.4377 231.623 52.691C232.155 52.919 232.763 53.033 233.447 53.033C234.157 53.033 234.727 52.9444 235.157 52.767C235.588 52.5644 235.905 52.311 236.107 52.007C236.31 51.6777 236.411 51.3484 236.411 51.019C236.411 50.5377 236.259 50.1577 235.955 49.879C235.651 49.6004 235.195 49.3724 234.587 49.195C234.005 48.9924 233.308 48.777 232.497 48.549C231.661 48.321 230.813 48.0804 229.951 47.827C229.115 47.5737 228.343 47.257 227.633 46.877C226.924 46.4717 226.354 45.965 225.923 45.357C225.493 44.7237 225.277 43.9384 225.277 43.001C225.277 41.9117 225.581 40.9237 226.189 40.037C226.823 39.1504 227.709 38.441 228.849 37.909C229.989 37.377 231.37 37.111 232.991 37.111C235.271 37.111 237.083 37.6304 238.425 38.669C239.793 39.7077 240.591 41.139 240.819 42.963H235.993C235.867 42.3297 235.537 41.8484 235.005 41.519C234.499 41.1644 233.827 40.987 232.991 40.987C232.105 40.987 231.421 41.1517 230.939 41.481C230.483 41.8104 230.255 42.2157 230.255 42.697C230.255 43.0517 230.407 43.3557 230.711 43.609C231.041 43.8624 231.497 44.0777 232.079 44.255C232.662 44.4324 233.371 44.635 234.207 44.863C235.55 45.2177 236.766 45.5977 237.855 46.003C238.97 46.4084 239.857 46.9657 240.515 47.675C241.199 48.359 241.541 49.347 241.541 50.639C241.567 51.8297 241.25 52.8937 240.591 53.831C239.933 54.7684 239.008 55.5157 237.817 56.073C236.627 56.605 235.195 56.871 233.523 56.871Z" fill="#170F49"/>
<path d="M77.1586 32.6605H68.6207C63.5784 32.6605 52.2055 30.1095 55.5669 16C53.468 16.8305 51.6672 18.2727 50.3982 20.1394C49.1291 22.0061 48.4504 24.2112 48.4502 26.4684V30.5964C48.4502 31.3187 48.4747 32.0253 48.5238 32.7162C59.2745 33.4356 69.9163 41.0918 70.8932 55.1206C71.4488 55.1585 72.005 55.1774 72.5617 55.1774H77.1586C80.1445 55.1774 83.008 53.9913 85.1193 51.88C87.2306 49.7687 88.4167 46.9052 88.4167 43.9194C88.4167 40.9336 87.2306 38.0701 85.1193 35.9588C83.008 33.8475 80.1445 32.6614 77.1586 32.6614V32.6605Z" fill="#170F49"/>
<path d="M46.8553 32.6606H42.258C39.2722 32.6606 36.4087 33.8468 34.2974 35.958C32.1861 38.0693 31 40.9329 31 43.9187C31 46.9045 32.1861 49.768 34.2974 51.8793C36.4087 53.9906 39.2722 55.1767 42.258 55.1767H50.7956C55.8374 55.1767 67.2103 57.7277 63.8495 71.8378C65.9482 71.007 67.7489 69.5647 69.0179 67.698C70.2868 65.8313 70.9655 63.6263 70.9659 61.3691V57.2406C70.9659 41.1047 58.6767 32.6606 46.8553 32.6606Z" fill="#4A3AFF"/>
</svg>
